<?xml version="1.0" encoding="UTF-8" standalone="no"?>
<!-- Generator: Gravit.io -->
<svg xmlns="http://www.w3.org/2000/svg" xmlns:xlink="http://www.w3.org/1999/xlink" style="isolation:isolate" viewBox="549.004 277 100 49.822" width="100pt" height="49.822pt"><defs><clipPath id="_clipPath_6yxkUmdWA3gvRk1jeQYTgChnjhQs0VKK"><rect x="549.004" y="277" width="100" height="49.822"/></clipPath></defs><g clip-path="url(#_clipPath_6yxkUmdWA3gvRk1jeQYTgChnjhQs0VKK)"><path d=" M 549.004 326.822 C 549.1 299.308 571.467 277 599.004 277 C 626.534 277 648.897 299.297 649.004 326.802" fill="rgb(242,13,13)"/><path d=" M 559.262 326.802 C 559.338 304.933 577.117 287.202 599.004 287.202 C 620.886 287.202 638.661 304.924 638.745 326.787" fill="rgb(242,151,13)"/><path d=" M 570.143 326.802 C 570.199 310.921 583.109 298.045 599.004 298.045 C 614.894 298.045 627.803 310.915 627.864 326.791" fill="rgb(242,242,13)"/><path d=" M 579.113 326.822 C 579.151 315.877 588.049 307.002 599.004 307.002 C 609.956 307.002 618.852 315.872 618.895 326.814" fill="rgb(38,217,38)"/><path d=" M 589.491 326.822 C 589.509 321.588 593.765 317.343 599.004 317.343 C 604.242 317.343 608.496 321.586 608.517 326.819" fill="rgb(36,36,219)"/></g></svg>